<?xml version="1.0" standalone="no"?>
<!DOCTYPE svg PUBLIC "-//W3C//DTD SVG 20010904//EN"
 "http://www.w3.org/TR/2001/REC-SVG-20010904/DTD/svg10.dtd">
<svg version="1.0" xmlns="http://www.w3.org/2000/svg"
 width="493.000000pt" height="493.000000pt" viewBox="0 0 493.000000 493.000000"
 preserveAspectRatio="xMidYMid meet">
<metadata>
Created by potrace 1.14, written by Peter Selinger 2001-2017
</metadata>
<g transform="translate(0.000000,493.000000) scale(0.100000,-0.100000)"
fill="#000000" stroke="none">
<path d="M0 2465 l0 -2465 2465 0 2465 0 0 2465 0 2465 -2465 0 -2465 0 0
-2465z m2547 2120 c226 -21 537 -111 752 -219 92 -47 271 -162 236 -152 -42
11 -254 47 -340 56 -49 6 -104 15 -122 21 -41 13 -211 27 -221 18 -4 -4 -142
-19 -307 -33 -165 -15 -356 -33 -425 -41 -69 -8 -183 -21 -255 -29 -139 -16
-182 -19 -425 -35 -85 -6 -198 -16 -250 -22 -52 -6 -110 -10 -129 -8 l-33 4
68 51 c76 56 222 142 324 191 339 162 742 233 1127 198z m473 -305 c52 -6 118
-15 145 -20 28 -6 124 -22 215 -36 194 -30 206 -33 287 -93 63 -46 73 -65 37
-68 -10 -1 -84 -7 -164 -13 -142 -11 -315 -28 -355 -35 -11 -2 -76 -10 -145
-19 -199 -24 -222 -28 -213 -37 7 -6 173 10 248 25 11 2 31 0 45 -3 18 -5 1
-9 -55 -14 -44 -4 -96 -12 -115 -17 -19 -6 -57 -10 -85 -10 -44 0 -150 -14
-385 -51 -129 -20 -316 -47 -365 -53 -48 -5 -49 -5 -23 9 15 8 37 15 50 14 38
-1 257 37 266 46 8 7 -16 6 -83 -5 -33 -5 -82 -12 -110 -15 -27 -3 -77 -10
-110 -16 -106 -19 -138 -19 -235 2 -77 16 -243 50 -365 75 -82 16 -335 67
-355 70 -14 3 -53 12 -88 20 -64 14 -113 18 -82 7 8 -3 17 -9 20 -13 3 -3 43
-14 90 -24 47 -10 92 -20 100 -21 93 -21 214 -46 241 -49 19 -3 90 -17 159
-31 69 -15 145 -29 170 -32 25 -3 91 -21 148 -40 56 -19 107 -31 112 -28 22
13 47 -7 61 -48 21 -63 18 -277 -5 -344 -10 -29 -22 -53 -28 -53 -6 0 -16 -7
-23 -16 -11 -16 -15 -16 -60 0 -27 9 -65 16 -84 16 -36 0 -332 69 -341 79 -3
3 -18 7 -35 9 -45 5 -591 140 -630 156 -18 8 -36 12 -39 9 -2 -3 -11 -1 -18 3
-7 5 -19 9 -26 10 -30 5 -42 15 -42 35 0 16 4 19 17 14 104 -44 715 -199 1085
-276 148 -30 159 -31 176 -16 10 10 19 23 20 30 1 6 9 46 17 87 17 78 15 193
-5 244 -11 29 -43 45 -104 53 -22 2 -47 8 -57 13 -9 5 -31 12 -50 15 -19 3
-61 12 -94 20 -33 8 -85 17 -115 21 -30 3 -64 10 -76 14 -11 5 -124 29 -249
55 -126 25 -232 48 -235 50 -4 2 -36 9 -73 15 -37 6 -78 15 -92 20 l-26 10 33
28 c67 58 78 62 163 62 82 0 378 22 540 39 50 6 113 12 140 15 28 3 79 10 115
16 36 5 151 17 255 26 105 8 217 19 250 23 33 5 116 13 185 20 381 35 333 33
450 21z m740 -237 c-25 -4 -234 -25 -250 -25 -8 0 -73 -6 -144 -14 -71 -8
-131 -12 -133 -10 -3 3 12 7 33 10 22 4 66 10 99 16 33 5 112 12 175 16 63 3
135 9 160 13 25 4 52 5 60 2 13 -5 13 -6 0 -8z m91 -78 c59 -58 203 -225 198
-229 -2 -2 -35 -7 -73 -10 -37 -3 -72 -9 -77 -12 -5 -3 -28 -7 -52 -9 -90 -8
-143 -16 -173 -26 -18 -5 -36 -9 -40 -8 -29 5 -54 -3 -54 -17 0 -14 3 -14 15
-4 12 10 15 10 15 -1 0 -10 3 -10 12 -1 7 7 16 12 20 12 12 0 -55 -93 -71 -98
-9 -3 -11 0 -6 9 5 8 -2 5 -15 -6 -18 -16 -24 -17 -28 -6 -3 8 -7 9 -11 3 -6
-11 -101 -26 -101 -16 0 13 40 45 49 40 5 -4 22 9 37 29 14 19 31 35 36 35 6
0 -2 -16 -16 -35 -37 -49 -19 -44 23 6 l33 40 -56 -3 c-31 -2 -56 -7 -56 -11
0 -5 -4 -6 -8 -3 -5 3 -36 -1 -70 -9 -34 -8 -67 -12 -74 -10 -8 3 -25 -13 -40
-38 -15 -23 -39 -54 -54 -67 -26 -24 -26 -24 -15 -2 14 26 4 30 -15 5 -7 -10
-23 -19 -36 -20 -28 -2 -83 -11 -83 -14 0 -1 -10 -3 -22 -4 -27 -3 -29 7 -6
26 14 12 16 12 9 0 -6 -9 -5 -12 5 -9 8 3 14 13 14 24 0 10 4 25 9 32 4 7 6
15 4 17 -8 8 -25 -11 -52 -58 -18 -31 -33 -47 -44 -45 -9 1 -23 -1 -29 -5 -23
-15 -13 10 22 54 19 24 35 48 35 53 0 8 -47 5 -162 -10 -33 -5 -48 -11 -48
-21 0 -9 -14 -37 -31 -63 -26 -40 -36 -48 -60 -48 -16 1 -29 3 -29 5 0 2 16
25 35 50 19 25 35 49 35 53 0 5 -17 4 -37 0 -20 -5 -39 -8 -42 -8 -27 2 -40
-4 -34 -18 3 -8 -4 -28 -16 -44 -11 -16 -21 -33 -21 -37 0 -4 5 -1 10 7 8 12
11 13 19 1 7 -11 10 -11 17 0 37 64 37 64 11 34 -15 -16 -26 -25 -27 -18 0 20
47 66 53 51 3 -9 9 -7 21 7 30 39 16 4 -19 -44 -31 -43 -42 -51 -86 -60 -69
-15 -78 -14 -76 8 0 11 4 19 8 18 4 -1 24 16 44 38 36 39 36 39 13 5 -42 -60
-41 -67 2 -21 39 42 47 70 19 63 -7 -2 -48 -8 -90 -15 -64 -9 -79 -14 -83 -31
-7 -28 1 -33 20 -10 15 19 16 19 10 -1 -5 -17 -3 -16 14 5 25 32 26 14 0 -25
-11 -16 -20 -34 -20 -40 0 -5 16 14 36 43 20 30 38 51 41 48 3 -3 -4 -17 -16
-32 -14 -18 -19 -34 -15 -50 4 -15 2 -24 -5 -24 -6 0 -11 6 -11 13 0 9 -2 9
-8 0 -7 -11 -113 -35 -121 -28 -2 2 13 27 33 56 21 28 35 53 32 56 -2 3 -29 0
-60 -7 -31 -6 -59 -9 -64 -6 -13 8 -29 -7 -36 -34 l-7 -25 20 25 c22 27 28 21
10 -11 -7 -13 -16 -18 -28 -14 -12 3 -21 0 -25 -10 -3 -9 -2 -13 3 -10 6 3 14
-3 20 -12 6 -10 11 -12 11 -5 0 6 7 12 15 12 8 0 15 8 15 18 1 18 30 64 30 46
0 -6 -5 -15 -12 -22 -9 -9 -9 -15 0 -24 10 -10 16 -8 30 6 16 17 16 18 0 13
-15 -5 -16 -3 -7 17 7 16 20 24 36 24 14 0 21 -3 15 -7 -5 -3 -19 -25 -31 -49
-12 -24 -28 -45 -35 -48 -7 -3 -41 -4 -76 -2 l-63 3 26 31 c22 26 24 34 13 43
-11 9 -15 7 -19 -10 -3 -12 -10 -18 -17 -14 -6 3 -9 3 -8 -2 1 -4 -1 -18 -6
-30 -9 -27 -35 -31 -37 -5 -1 16 -2 16 -6 0 -5 -19 -33 -25 -33 -8 0 6 5 10
11 10 5 0 8 4 5 9 -3 5 2 15 11 22 9 8 14 9 10 3 -4 -7 0 -14 8 -18 13 -5 20
5 16 27 0 4 7 7 17 7 10 1 4 6 -14 14 l-31 14 -7 128 c-13 247 -16 223 36 231
18 2 69 11 113 19 44 8 130 21 190 29 61 7 198 26 305 40 226 31 400 54 450
60 19 3 71 9 115 15 44 6 109 13 145 16 36 2 97 8 135 12 39 4 96 7 127 7 55
0 59 -2 109 -50z m-636 25 c4 -6 -9 -10 -32 -9 -34 1 -35 2 -13 9 35 11 38 11
45 0z m-2205 -38 c58 -17 134 -36 168 -42 35 -6 74 -15 85 -19 44 -16 77 -21
77 -12 0 5 -24 15 -52 21 -96 21 -264 70 -218 64 46 -6 122 -25 175 -43 17 -5
64 -15 105 -20 41 -6 116 -20 165 -30 50 -11 142 -30 205 -42 122 -23 266 -64
274 -78 3 -5 -11 -3 -32 4 -20 7 -55 16 -77 19 -30 4 -34 4 -15 -3 43 -15 116
-53 90 -46 -14 3 -41 8 -60 10 -30 4 -28 2 13 -11 26 -8 47 -19 47 -23 0 -5
-25 0 -57 10 -31 11 -66 19 -77 18 -12 0 11 -11 49 -25 39 -13 72 -29 73 -34
2 -6 10 -10 18 -10 8 0 14 -5 14 -11 0 -7 -10 -9 -25 -7 -14 3 -30 -1 -36 -8
-8 -10 -5 -11 13 -8 17 4 19 3 8 -4 -14 -9 -113 5 -197 27 -19 5 -33 5 -33 0
0 -5 10 -11 23 -13 12 -3 42 -10 67 -15 31 -6 37 -9 20 -11 -18 -1 -11 -6 25
-16 30 -8 51 -9 53 -4 2 6 11 10 20 9 14 0 14 -2 2 -6 -9 -4 12 -19 55 -39 39
-18 63 -34 55 -34 -9 0 -5 -6 10 -15 37 -21 4 -19 -65 5 -32 11 -70 20 -84 19
-18 0 -9 -6 29 -18 30 -9 48 -19 41 -22 -13 -5 -71 7 -186 37 -27 7 -29 6 -16
-9 7 -10 19 -17 25 -17 17 0 88 -21 84 -25 -2 -2 -30 3 -63 11 -33 7 -71 13
-85 13 -35 -1 42 -24 150 -46 46 -9 79 -18 72 -21 -6 -2 -46 4 -88 12 -88 18
-94 19 -94 8 0 -5 46 -17 103 -27 56 -10 95 -20 86 -22 -31 -7 -657 136 -632
144 7 3 97 -16 200 -41 244 -60 240 -59 228 -48 -12 11 -255 72 -565 141 -100
23 -284 79 -262 80 8 1 51 -8 98 -20 46 -11 88 -18 93 -15 5 4 11 0 14 -6 2
-7 8 -10 12 -5 11 9 0 19 -22 21 -10 1 -51 10 -91 21 -55 14 -69 21 -55 27 14
6 12 7 -7 4 -14 -3 -52 1 -85 8 -59 12 -59 12 -24 18 47 8 129 -8 144 -28 9
-12 20 -15 44 -9 45 10 30 18 -64 39 -147 33 -159 36 -146 49 9 9 14 9 19 1 4
-6 42 -19 86 -28 61 -14 81 -15 90 -6 8 9 6 11 -11 5 -19 -5 -22 -3 -17 12 5
14 4 15 -4 4 -9 -12 -13 -12 -26 -2 -8 7 -20 10 -25 6 -13 -7 -91 15 -91 26 0
5 -8 6 -17 2 -16 -5 -15 -4 1 9 10 8 28 14 40 12 23 -4 237 -59 383 -100 118
-33 155 -26 43 8 -84 26 -111 34 -300 84 -140 37 -159 45 -155 65 3 15 -19 28
-47 29 -3 0 -5 -26 -5 -57 l2 -58 -50 -9 c-79 -13 -85 -20 -17 -24 64 -3 73
-10 47 -36 -14 -13 -20 -13 -63 0 -26 9 -53 18 -61 20 -16 5 17 53 88 127 49
52 53 53 151 32 22 -5 21 -3 -5 9 -39 20 -13 20 49 1 57 -17 80 -19 71 -5 -8
13 -12 14 104 -14 56 -13 103 -21 105 -17 3 4 -41 17 -97 30 -56 13 -111 27
-122 32 -11 4 -49 17 -85 28 -99 31 -19 17 100 -17z m-71 -8 c71 -20 59 -28
-16 -10 -65 15 -125 43 -68 31 17 -3 54 -13 84 -21z m-94 -4 c3 -5 -1 -10 -9
-10 -8 0 -18 5 -21 10 -3 6 1 10 9 10 8 0 18 -4 21 -10z m-164 -227 c43 -16
65 -33 41 -33 -20 0 -102 33 -102 41 0 12 5 12 61 -8z m1324 7 c3 -5 1 -10 -4
-10 -6 0 -11 5 -11 10 0 6 2 10 4 10 3 0 8 -4 11 -10z m2015 -7 c-1 -12 -50
-66 -56 -60 -3 2 7 19 21 36 27 31 35 37 35 24z m54 -28 c9 -19 24 -35 33 -35
9 0 13 -3 9 -7 -9 -9 -46 -11 -46 -2 0 4 -13 1 -30 -7 -16 -9 -34 -13 -40 -9
-5 3 -10 2 -10 -3 0 -6 -15 -10 -34 -10 -28 0 -33 3 -29 17 3 10 0 8 -10 -5
-15 -20 -67 -31 -67 -15 0 13 24 31 41 31 9 0 22 7 29 15 13 16 35 21 26 6 -3
-5 2 -12 11 -15 12 -5 29 6 57 34 23 22 41 40 42 40 1 0 9 -16 18 -35z m-3178
-3 c-6 -6 -56 10 -56 18 0 5 13 3 30 -3 16 -6 28 -13 26 -15z m3074 13 c-7 -9
-15 -13 -17 -11 -7 7 7 26 19 26 6 0 6 -6 -2 -15z m-3344 -80 c-2 -58 8 -71
46 -59 10 3 25 0 33 -6 10 -8 15 -9 15 -2 0 6 -16 16 -35 22 -20 7 -32 16 -29
22 4 6 0 15 -7 20 -25 17 30 2 149 -41 63 -23 128 -41 145 -40 21 0 -27 20
-136 56 -92 31 -165 58 -163 61 3 2 19 0 35 -6 17 -6 31 -7 31 -2 0 4 -14 13
-32 19 -17 6 -29 14 -26 17 8 7 65 -22 70 -36 4 -12 223 -79 374 -115 148 -35
501 -150 521 -170 15 -15 13 -16 -23 -9 -21 4 -68 15 -104 25 -50 13 -61 14
-46 3 17 -12 -9 -14 -217 -14 l-237 0 0 -45 c0 -44 -1 -45 -27 -39 -29 7 -189
61 -258 87 l-40 15 37 0 c21 -1 36 -4 34 -7 -2 -3 10 -7 27 -7 l30 -1 -27 14
c-34 18 -115 43 -138 43 -10 0 -18 -7 -18 -15 0 -7 -7 -18 -16 -23 -9 -5 -15
-15 -13 -21 4 -10 196 -83 299 -113 19 -5 40 -13 45 -18 6 -4 22 -10 38 -14
15 -3 27 -10 27 -15 0 -5 -46 6 -102 24 -134 44 -219 73 -270 93 -24 10 -38 7
-38 -8 0 -3 26 -14 58 -23 90 -28 86 -19 88 -171 1 -110 -1 -136 -13 -140 -8
-3 -66 -15 -129 -26 -63 -11 -141 -26 -172 -34 -31 -8 -75 -17 -97 -20 -22 -2
-47 -7 -56 -11 -15 -5 -16 -1 -12 31 8 57 66 248 106 344 53 131 178 356 229
415 20 23 24 24 34 10 7 -9 11 -41 10 -70z m3256 51 c-17 -19 -35 -43 -42 -53
-8 -13 -13 -14 -16 -5 -8 17 -24 15 -24 -3 0 -8 -4 -15 -10 -15 -16 0 -12 8
23 55 32 44 52 58 41 30 -9 -22 9 -18 24 5 7 11 17 20 23 20 6 0 -3 -15 -19
-34z m58 31 c0 -2 -12 -14 -27 -28 l-28 -24 24 28 c23 25 31 32 31 24z m-233
-41 c-24 -18 -21 -25 10 -22 14 2 35 13 45 26 10 12 18 18 18 13 0 -12 -40
-48 -61 -56 -9 -3 -21 -1 -26 4 -7 7 -12 5 -16 -4 -4 -11 3 -14 33 -12 28 2
37 -1 33 -11 -3 -8 -19 -12 -44 -10 -22 2 -42 0 -44 -4 -3 -4 -16 -7 -30 -7
-13 0 -22 4 -19 9 3 5 11 7 17 5 15 -5 40 20 32 33 -10 16 18 50 37 44 11 -3
18 0 18 7 0 7 3 9 7 5 5 -4 0 -13 -10 -20z m-2722 -26 c13 -6 15 -9 5 -9 -8 0
-22 4 -30 9 -18 12 -2 12 25 0z m2429 -11 c-3 -6 0 -16 7 -21 11 -8 10 -9 -3
-4 -20 6 -25 -10 -5 -17 7 -4 6 -6 -4 -6 -9 -1 -19 -9 -21 -19 -5 -17 -48 -29
-48 -13 0 5 12 20 26 34 14 14 23 30 20 36 -4 5 2 12 11 14 10 3 19 5 21 6 2
0 0 -4 -4 -10z m76 7 c0 -2 -8 -10 -17 -17 -16 -13 -17 -12 -4 4 13 16 21 21
21 13z m-1500 -10 c0 -2 -7 -6 -15 -10 -8 -3 -15 -1 -15 4 0 6 7 10 15 10 8 0
15 -2 15 -4z m2173 -50 c131 -197 248 -517 293 -801 27 -165 25 -479 -4 -645
-23 -135 -59 -281 -91 -372 -32 -92 -113 -268 -124 -268 -5 0 -38 20 -73 45
l-63 46 4 112 c4 107 4 108 -5 37 -14 -105 -20 -110 -15 -10 3 67 2 75 -4 34
-5 -28 -14 -61 -21 -74 -13 -24 -13 -24 -21 -5 -4 11 -8 15 -8 9 -2 -26 -66
-43 -150 -40 l-83 3 -29 -40 c-16 -23 -32 -51 -35 -63 -3 -12 -12 -25 -20 -28
-19 -7 -18 -3 14 46 42 62 49 90 12 48 l-30 -35 15 31 c8 17 24 39 36 50 66
58 109 184 109 315 l0 89 33 0 c17 0 62 -3 100 -7 l67 -6 0 -33 c0 -22 4 -33
13 -32 8 2 13 -15 15 -54 2 -34 8 -58 14 -58 14 0 3 130 -16 174 -12 30 -43
63 -113 124 -30 26 -29 37 4 40 33 3 42 11 23 22 -9 5 -19 5 -27 -1 -7 -6 -17
-8 -22 -5 -5 4 -13 1 -16 -5 -4 -5 -13 -8 -21 -5 -8 3 -14 1 -14 -4 0 -16 -27
-11 -34 5 -9 24 5 47 25 42 19 -5 55 31 43 42 -3 3 -9 -1 -14 -9 -8 -12 -10
-13 -10 -1 0 11 -5 10 -20 -4 -25 -22 -28 -1 -3 23 12 13 17 14 21 4 3 -10 7
-10 18 -1 11 9 14 8 14 -2 1 -10 5 -8 15 5 8 10 24 19 36 20 12 0 24 7 27 14
4 13 -23 11 -78 -8 -14 -5 -37 -11 -52 -14 l-28 -6 0 220 c0 121 2 220 4 220
2 0 60 11 128 24 187 36 196 38 203 26 3 -6 10 -8 15 -5 5 3 14 -11 19 -32 12
-43 31 -193 31 -237 0 -37 -17 -23 -23 19 -2 17 -5 -1 -7 -40 -1 -38 -2 -74
-1 -78 1 -5 -3 -6 -8 -3 -5 3 -14 -1 -21 -9 -11 -13 -10 -14 5 -9 13 5 16 4
11 -4 -4 -7 -2 -12 4 -12 6 0 8 -5 5 -10 -4 -7 -13 -7 -26 0 -12 7 -26 7 -36
2 -10 -6 -42 -13 -71 -17 -36 -5 -55 -12 -59 -24 -3 -9 -15 -26 -26 -38 -36
-40 -10 -36 27 3 21 23 36 32 36 24 1 -10 7 -7 20 9 11 13 20 18 20 11 0 -18
-29 -42 -41 -34 -8 4 -9 3 -5 -4 4 -6 -1 -23 -10 -37 -9 -14 -14 -28 -11 -32
4 -3 -1 -12 -11 -20 -15 -12 -11 -13 33 -7 27 4 65 13 84 21 18 8 39 12 45 10
43 -17 71 74 82 268 11 201 -30 344 -104 361 -15 4 -81 22 -147 41 -66 20
-130 38 -142 40 -41 9 -24 25 42 39 52 11 138 51 148 69 11 19 14 163 9 424
-2 97 6 131 28 131 4 0 23 -24 43 -54z m-3086 38 c-3 -3 -12 -4 -19 -1 -8 3
-5 6 6 6 11 1 17 -2 13 -5z m806 -1 c-7 -2 -19 -2 -25 0 -7 3 -2 5 12 5 14 0
19 -2 13 -5z m1463 -5 c4 4 2 -1 -6 -12 -8 -10 -19 -28 -25 -40 -6 -11 -20
-21 -30 -21 -11 -1 -26 -4 -33 -9 -30 -18 -21 4 19 48 30 33 45 43 54 36 6 -5
16 -6 21 -2z m415 -11 c-10 -9 -11 -8 -5 6 3 10 9 15 12 12 3 -3 0 -11 -7 -18z
m-1754 7 c-3 -3 -12 -4 -19 -1 -8 3 -5 6 6 6 11 1 17 -2 13 -5z m-790 -15 c35
-6 63 -15 63 -20 0 -5 -1 -9 -2 -9 -2 1 -37 9 -78 20 -85 21 -77 25 17 9z
m1773 -19 c0 -15 -24 -24 -28 -11 -2 7 -14 1 -29 -16 -16 -17 -23 -21 -20 -10
7 19 -9 24 -16 5 -2 -7 -8 -10 -12 -6 -11 10 15 40 30 34 7 -2 17 -1 23 3 17
10 52 11 52 1z m891 -18 c-17 -32 -45 -52 -61 -42 -8 5 -11 12 -7 17 5 4 11 2
16 -5 5 -8 14 -3 29 18 25 33 38 40 23 12z m44 -19 l-28 -28 23 33 c12 18 24
31 27 28 3 -2 -7 -17 -22 -33z m135 34 c0 -2 -12 -14 -27 -28 l-28 -24 24 28
c23 25 31 32 31 24z m-1224 -22 c-7 -18 3 -45 16 -45 5 0 7 8 4 18 -3 9 -1 24
5 32 8 12 9 9 4 -9 -5 -17 -4 -21 5 -16 14 9 5 -31 -12 -52 -15 -19 -31 -16
-24 5 4 11 -1 9 -14 -7 -29 -34 -36 -18 -9 20 19 27 20 32 5 26 -17 -7 -15 3
9 30 14 17 18 16 11 -2z m1014 11 c0 -3 -4 -8 -10 -11 -5 -3 -10 -1 -10 4 0 6
5 11 10 11 6 0 10 -2 10 -4z m109 -26 c-13 -16 -25 -28 -27 -25 -5 5 37 55 45
55 2 0 -6 -13 -18 -30z m-1842 -32 c-2 -13 -4 -5 -4 17 -1 22 1 32 4 23 2 -10
2 -28 0 -40z m1578 2 c-15 -22 -32 -40 -37 -40 -14 0 -7 12 27 53 39 46 46 38
10 -13z m75 44 c0 -3 -7 -12 -15 -20 -8 -8 -21 -25 -30 -36 -8 -12 -17 -19
-21 -16 -7 7 47 78 59 78 4 0 7 -3 7 -6z m223 -9 c-3 -9 -8 -14 -10 -11 -3 3
-2 9 2 15 9 16 15 13 8 -4z m-1055 -29 c-13 -19 -26 -32 -31 -29 -4 2 -15 -1
-24 -9 -14 -11 -15 -11 -10 2 4 8 10 23 13 33 7 20 21 22 27 5 2 -8 9 -5 18
10 7 12 17 22 21 22 5 0 -2 -15 -14 -34z m742 28 c0 -3 -11 -19 -25 -36 -29
-34 -32 -29 -8 13 16 26 33 38 33 23z m208 -14 c-7 -11 -17 -20 -22 -20 -5 0
-1 9 9 20 10 11 20 20 22 20 2 0 -2 -9 -9 -20z m-403 -37 c-2 -16 -4 -32 -4
-37 -1 -4 -8 -6 -16 -3 -8 4 -17 2 -21 -4 -4 -6 -11 -6 -20 2 -11 9 -15 8 -20
-5 -3 -9 -10 -16 -15 -16 -16 0 -9 19 17 47 l27 28 -8 -25 c-7 -24 -6 -24 25
8 19 17 35 32 36 32 2 0 1 -12 -1 -27z m-135 6 c0 6 5 11 12 11 9 0 9 -3 0
-12 -22 -22 -12 -32 11 -10 49 47 41 9 -9 -41 -15 -15 -29 -25 -32 -22 -3 3 0
11 6 17 16 16 15 29 -2 22 -17 -7 -30 12 -22 33 5 12 9 13 21 3 10 -9 15 -9
15 -1z m457 5 c-3 -3 -12 -4 -19 -1 -8 3 -5 6 6 6 11 1 17 -2 13 -5z m-1832
-26 c17 -7 16 -8 -5 -3 -14 2 -37 5 -52 5 -16 0 -28 4 -28 10 0 10 51 3 85
-12z m1196 -14 c-24 -30 -24 -33 -11 -54 9 -13 11 -13 20 0 5 8 10 11 10 5 0
-5 -5 -17 -10 -25 -8 -12 -11 -13 -19 -1 -7 11 -9 11 -13 0 -3 -8 -9 -10 -14
-6 -5 4 -2 12 6 18 13 8 13 10 1 18 -11 7 -8 16 15 44 15 20 30 34 32 32 2 -2
-5 -16 -17 -31z m433 21 c3 -9 0 -15 -9 -15 -9 0 -12 6 -9 15 4 8 7 15 9 15 2
0 5 -7 9 -15z m436 -18 c0 -42 -17 -64 -55 -71 -109 -18 -150 -42 -140 -86 5
-22 4 -23 -6 -6 -9 15 -9 24 0 38 10 16 8 18 -26 18 -21 0 -57 -5 -81 -10 -35
-9 -56 -7 -110 10 -58 18 -93 21 -249 21 -117 0 -183 3 -183 10 0 6 20 31 44
57 l45 47 -4 -30 c-2 -16 -4 -33 -4 -37 -1 -5 -6 -8 -12 -8 -8 0 -8 5 1 15 7
8 8 15 3 15 -8 0 -43 -36 -43 -44 0 -8 124 3 215 18 50 8 115 17 145 20 62 5
188 22 270 35 30 5 70 9 89 10 18 0 35 1 37 3 1 2 17 5 34 6 28 2 30 0 30 -31z
m-1260 3 c0 -5 -2 -10 -4 -10 -3 0 -8 5 -11 10 -3 6 -1 10 4 10 6 0 11 -4 11
-10z m286 -5 c-8 -9 -23 -29 -33 -45 -17 -29 -49 -48 -61 -36 -10 10 12 59 28
63 9 3 11 1 4 -4 -14 -11 -26 -43 -15 -43 4 0 17 12 27 26 27 38 44 54 55 54
6 0 4 -7 -5 -15z m54 -21 c-18 -21 -24 -10 -8 15 7 12 14 17 16 11 2 -6 -2
-17 -8 -26z m950 20 c0 -8 -5 -12 -10 -9 -6 4 -8 11 -5 16 9 14 15 11 15 -7z
m-1099 -18 c-13 -14 -20 -29 -16 -35 8 -14 -3 -51 -16 -51 -6 0 -6 7 1 19 17
32 11 34 -14 4 -13 -15 -27 -26 -30 -23 -7 7 74 110 87 110 6 0 0 -11 -12 -24z
m-31 4 c0 -6 -7 -13 -15 -16 -8 -4 -12 -10 -9 -15 3 -5 0 -9 -5 -9 -14 0 -14
6 -1 31 11 20 30 26 30 9z m-953 -6 c-3 -3 -12 -4 -19 -1 -8 3 -5 6 6 6 11 1
17 -2 13 -5z m888 -30 c-26 -34 -31 -60 -5 -29 7 8 17 15 23 15 5 0 2 -9 -8
-20 -10 -12 -24 -19 -31 -16 -7 3 -15 0 -17 -7 -2 -7 -8 -9 -12 -5 -8 7 55 97
69 98 4 0 -4 -16 -19 -36z m437 29 c-6 -2 -10 -9 -6 -14 3 -5 -2 -9 -12 -9
-13 0 -14 3 -4 15 7 8 18 15 24 14 7 0 6 -2 -2 -6z m-544 -33 c-12 -16 -28
-30 -36 -30 -9 0 -7 9 10 29 31 40 56 41 26 1z m52 20 c0 -5 -5 -10 -11 -10
-5 0 -7 5 -4 10 3 6 8 10 11 10 2 0 4 -4 4 -10z m-176 -34 c-3 -9 -10 -16 -15
-16 -6 0 -5 9 1 21 13 24 24 20 14 -5z m190 10 c-3 -8 -13 -17 -22 -21 -13 -5
-13 -2 3 15 21 24 26 25 19 6z m246 4 c9 13 11 13 20 0 6 -10 10 -11 10 -2 0
6 5 12 11 12 6 0 9 -6 7 -12 -5 -13 -84 -29 -93 -20 -3 3 0 11 7 19 9 11 13
11 20 1 6 -10 10 -10 18 2z m-518 -22 c-7 -7 -12 -8 -12 -2 0 6 3 14 7 17 3 4
9 5 12 2 2 -3 -1 -11 -7 -17z m48 7 c0 -8 -4 -15 -10 -15 -5 0 -10 7 -10 15 0
8 5 15 10 15 6 0 10 -7 10 -15z m190 11 c0 -3 -4 -8 -10 -11 -5 -3 -10 -1 -10
4 0 6 5 11 10 11 6 0 10 -2 10 -4z m-90 -10 c0 -3 -4 -8 -10 -11 -5 -3 -10 -1
-10 4 0 6 5 11 10 11 6 0 10 -2 10 -4z m-920 -36 c16 -16 20 -33 20 -86 0 -41
-4 -63 -10 -59 -5 3 -10 35 -10 70 0 60 -2 65 -27 79 -20 11 -23 15 -10 16 9
0 26 -9 37 -20z m2175 -20 c-2 -34 -10 -46 -20 -31 -3 6 -1 11 5 11 7 0 9 7 6
16 -5 14 0 34 8 34 2 0 2 -14 1 -30z m65 20 c0 -5 -4 -10 -9 -10 -6 0 -13 5
-16 10 -3 6 1 10 9 10 9 0 16 -4 16 -10z m-3277 -14 c18 -8 49 -20 70 -26 21
-7 37 -14 35 -16 -4 -4 -93 21 -123 35 -11 5 -27 12 -35 14 -11 4 -10 6 3 6
11 1 33 -5 50 -13z m3164 -16 c0 -19 -3 -26 -8 -18 -6 9 -10 8 -15 -5 -5 -14
-9 -15 -20 -6 -8 6 -14 17 -14 23 0 6 5 4 10 -4 8 -13 11 -12 24 5 9 11 16 23
16 28 0 4 2 7 3 7 2 0 4 -14 4 -30z m-929 -32 l-3 -53 -53 0 c-41 0 -51 -3
-47 -14 4 -11 3 -12 -10 -1 -12 10 -16 9 -21 -6 -14 -46 -27 -68 -31 -56 -3 7
1 19 7 27 9 11 9 15 1 15 -16 0 -15 120 2 121 41 2 112 11 116 14 2 3 13 5 23
5 17 0 19 -7 16 -52z m-1077 18 c30 -13 69 -27 87 -31 l32 -7 0 -83 0 -83 -50
-11 c-28 -6 -69 -11 -90 -11 l-40 0 0 60 c0 33 -4 60 -10 60 -13 0 -13 37 0
45 5 3 8 24 6 45 -2 22 0 40 4 40 4 0 32 -11 61 -24z m1869 15 c0 -12 -29 -35
-36 -28 -7 6 17 36 29 37 4 0 7 -4 7 -9z m-2823 -57 c-3 -3 -12 -4 -19 -1 -8
3 -5 6 6 6 11 1 17 -2 13 -5z m3110 -46 c0 -19 -3 -24 -9 -16 -7 12 -12 4 -9
-14 0 -5 -4 -8 -10 -8 -5 0 -15 -13 -20 -30 -6 -16 -16 -30 -22 -30 -6 0 -19
-7 -29 -17 -16 -14 -18 -14 -18 -1 0 9 8 19 17 22 14 6 15 9 4 15 -11 7 -11
12 2 31 8 12 13 29 10 38 -3 12 2 18 16 19 12 1 21 -2 21 -8 0 -5 -4 -9 -8 -9
-5 0 -14 -11 -20 -25 -16 -34 -15 -39 2 -23 8 7 12 15 10 17 -1 2 4 10 12 18
8 8 12 23 9 33 -4 13 0 18 18 18 19 0 24 -6 24 -30z m-3264 -7 c10 -11 7 -12
-13 -6 -33 10 -46 22 -20 20 11 -1 26 -7 33 -14z m3068 -12 c-5 -13 -10 -18
-10 -11 -1 6 -5 12 -10 12 -5 0 -7 -9 -4 -20 7 -25 -12 -27 -21 -2 -3 9 -9 22
-12 29 -3 7 7 13 28 15 42 4 40 5 29 -23z m60 7 c-12 -12 -21 -28 -21 -34 0
-13 -13 -16 -23 -6 -9 10 4 35 15 28 6 -4 8 1 4 12 -4 15 0 19 20 20 l26 2
-21 -22z m-3081 10 c0 -11 -19 -15 -25 -6 -3 5 1 10 9 10 9 0 16 -2 16 -4z
m2088 -3 c-17 -38 -53 -83 -65 -83 -14 0 4 32 42 77 11 13 29 17 23 6z m-2006
-24 c24 -7 46 -12 51 -11 4 1 7 -7 7 -19 0 -13 -5 -19 -12 -16 -7 2 -38 13
-68 23 -68 23 -63 20 -55 34 4 6 13 9 20 6 8 -3 33 -10 57 -17z m2019 -6 c-12
-20 -14 -14 -5 12 4 9 9 14 11 11 3 -2 0 -13 -6 -23z m-2086 -18 c22 -8 59
-19 83 -25 l42 -11 0 -48 0 -47 -92 29 c-137 44 -153 50 -141 54 6 2 43 -7 82
-21 39 -14 71 -23 71 -21 0 3 12 0 26 -5 16 -7 23 -7 19 0 -3 5 -32 17 -63 25
-31 9 -70 22 -87 29 -16 8 -39 17 -49 20 -10 4 -17 9 -14 11 3 3 27 -2 54 -10
57 -17 67 -18 59 -6 -3 5 -30 17 -61 26 -30 9 -52 20 -49 25 5 9 49 0 120 -25z
m1995 -10 c-12 -20 -24 -34 -27 -31 -2 2 6 20 19 39 30 46 37 39 8 -8z m1100
17 c0 -4 -5 -13 -12 -20 -9 -9 -9 -12 0 -12 8 0 4 -13 -10 -35 -22 -34 -38
-45 -38 -26 0 6 5 13 10 16 6 3 8 16 6 28 -1 12 -1 16 1 10 3 -7 9 -13 14 -13
6 0 9 6 8 13 -3 26 1 47 11 47 6 0 10 -4 10 -8z m-975 -12 c3 -5 1 -10 -4 -10
-6 0 -11 5 -11 10 0 6 2 10 4 10 3 0 8 -4 11 -10z m1075 0 c0 -5 -4 -10 -10
-10 -5 0 -10 5 -10 10 0 6 5 10 10 10 6 0 10 -4 10 -10z m-170 -14 c0 -7 -7
-19 -15 -26 -16 -13 -20 -3 -9 24 8 20 24 21 24 2z m165 -48 c-5 -24 -22 -38
-47 -38 -9 0 -19 -4 -23 -10 -6 -10 -35 -3 -35 10 0 4 9 17 19 29 19 22 19 22
26 2 3 -12 11 -21 17 -21 5 0 7 7 4 16 -4 12 -1 14 14 9 15 -5 18 -3 14 9 -3
9 -1 16 4 16 6 0 9 -10 7 -22z m-2647 -27 c58 -19 105 -40 92 -41 -3 0 -46 13
-95 30 -50 16 -98 30 -107 30 -10 0 -18 4 -18 9 0 10 34 3 128 -28z m35 23
c29 -9 58 -18 66 -20 8 -3 12 -7 9 -9 -4 -5 -128 32 -137 41 -8 7 10 4 62 -12z
m910 -15 c-8 -16 -17 -28 -20 -25 -6 5 23 56 31 56 3 0 -2 -14 -11 -31z m40
15 c-3 -9 0 -20 8 -26 11 -8 11 -9 -2 -5 -9 3 -22 0 -28 -6 -16 -16 -13 0 5
28 19 29 26 32 17 9z m65 -4 c-7 -11 -17 -20 -22 -20 -5 0 -1 9 9 20 10 11 20
20 22 20 2 0 -2 -9 -9 -20z m32 -1 c-7 -11 -14 -18 -17 -15 -3 3 0 12 7 21 18
21 23 19 10 -6z m40 6 c0 -8 -4 -15 -10 -15 -5 0 -7 7 -4 15 4 8 8 15 10 15 2
0 4 -7 4 -15z m21 -8 c-10 -9 -11 -8 -5 6 3 10 9 15 12 12 3 -3 0 -11 -7 -18z
m39 13 c0 -5 -5 -10 -11 -10 -5 0 -7 5 -4 10 3 6 8 10 11 10 2 0 4 -4 4 -10z
m396 -17 c-10 -10 -19 5 -10 18 6 11 8 11 12 0 2 -7 1 -15 -2 -18z m374 12 c0
-7 -16 -11 -40 -11 -52 1 -52 21 0 21 23 1 40 -4 40 -10z m50 -4 c0 -4 -9 -7
-20 -7 -11 0 -20 6 -20 12 0 7 8 10 20 7 11 -3 20 -8 20 -12z m71 9 c10 0 19
-4 19 -9 0 -5 -18 -9 -40 -9 -38 -1 -48 6 -33 22 4 3 13 4 21 1 7 -3 22 -5 33
-5z m-1056 -10 c-3 -5 -12 -10 -18 -10 -7 0 -6 4 3 10 19 12 23 12 15 0z
m-1547 -36 l112 -35 0 -60 c0 -32 -2 -59 -5 -59 -3 0 -21 7 -40 15 -19 7 -62
19 -95 26 -33 6 -68 18 -77 25 -24 18 -4 17 42 -2 20 -8 40 -13 43 -10 7 8 5
9 -53 34 -33 14 -42 21 -28 22 16 0 21 5 18 19 -3 17 0 18 37 9 62 -14 55 -4
-12 16 -33 10 -63 22 -66 27 -8 14 5 11 124 -27z m3022 2 c0 -6 -7 -19 -15
-30 -13 -16 -14 -14 -13 23 0 34 3 39 14 30 8 -6 14 -17 14 -23z m50 24 c0 -5
-4 -10 -10 -10 -5 0 -10 5 -10 10 0 6 5 10 10 10 6 0 10 -4 10 -10z m-2602
-26 c32 -8 90 -27 130 -41 l72 -26 2 -66 c4 -128 3 -191 -3 -191 -3 0 -32 9
-65 19 -32 11 -92 29 -131 41 l-73 21 0 129 c0 72 3 130 6 130 3 0 31 -7 62
-16z m679 -19 c-1 -19 -4 -30 -8 -24 -4 7 -8 5 -12 -5 -4 -9 -11 -16 -16 -16
-6 0 0 18 11 40 12 22 23 40 24 40 1 0 2 -16 1 -35z m911 27 l52 -2 0 -109 c0
-99 -2 -109 -19 -114 -16 -4 -19 -13 -18 -49 2 -37 5 -44 19 -40 10 2 18 -1
18 -8 0 -7 -7 -10 -15 -6 -8 3 -15 0 -16 -7 0 -8 -2 -8 -6 1 -4 10 -9 8 -20
-7 -27 -39 -33 -21 -7 19 15 22 25 43 22 45 -2 3 -19 -18 -37 -45 -18 -28 -34
-50 -36 -50 -2 0 -3 12 -3 28 1 15 -1 38 -6 52 -4 16 -4 20 2 12 7 -10 11 -10
21 2 16 19 -1 29 -36 19 -15 -4 -30 -8 -33 -8 -3 -1 -23 -7 -45 -13 -22 -6
-44 -12 -50 -13 -5 0 -19 -6 -30 -12 -11 -6 -24 -12 -30 -13 -5 -1 -36 -12
-69 -23 -32 -11 -63 -18 -69 -14 -6 4 -7 1 -2 -6 8 -14 -23 -91 -37 -91 -13 0
-10 12 11 44 21 32 18 54 -5 35 -8 -6 -14 -9 -14 -6 0 3 -15 0 -34 -8 -18 -8
-36 -11 -40 -8 -3 4 -6 2 -6 -3 0 -5 -8 -10 -17 -11 -10 -1 -27 -4 -38 -8 -20
-6 -20 -2 -18 166 l1 173 104 33 c56 18 114 36 128 41 22 7 231 9 378 4z m594
-1 c10 0 22 -9 27 -20 9 -16 3 -21 -52 -41 -34 -13 -99 -33 -144 -45 l-83 -22
0 62 c0 35 5 65 10 67 9 3 200 2 242 -1z m-1602 -10 c0 -6 -4 -13 -10 -16 -5
-3 -10 1 -10 9 0 9 5 16 10 16 6 0 10 -4 10 -9z m2015 -2 c8 -12 6 -15 -22
-23 -18 -6 -20 -4 -16 14 6 21 28 27 38 9z m-2040 -20 c6 -19 8 -19 25 -4 18
16 18 16 13 -4 -3 -12 -9 -21 -14 -21 -5 0 -9 -7 -9 -15 0 -8 -5 -15 -11 -15
-6 0 -8 9 -4 23 5 20 5 20 -10 -3 -14 -22 -15 -22 -10 -3 3 12 1 24 -5 28 -5
3 -10 -3 -10 -14 0 -11 -5 -23 -11 -27 -8 -4 -9 1 -3 17 4 13 7 29 7 36 0 6 7
9 15 5 10 -3 13 -1 8 6 -4 7 -3 12 3 12 5 0 13 -9 16 -21z m-1128 5 c-3 -3
-12 -4 -19 -1 -8 3 -5 6 6 6 11 1 17 -2 13 -5z m1636 -1 c-7 -2 -19 -2 -25 0
-7 3 -2 5 12 5 14 0 19 -2 13 -5z m-43 -14 c0 -5 -9 -9 -20 -9 -11 0 -20 4
-20 8 0 4 9 8 20 9 11 1 20 -2 20 -8z m1194 -46 c-14 -29 -68 -96 -62 -78 6
19 63 104 70 105 3 0 0 -12 -8 -27z m-42 -15 c-7 -7 -12 -8 -12 -2 0 6 3 14 7
17 3 4 9 5 12 2 2 -3 -1 -11 -7 -17z m-1517 0 c24 -11 25 -15 23 -88 l-2 -76
-75 24 c-42 14 -82 27 -89 28 -9 3 -12 18 -10 46 3 36 7 43 28 48 15 4 43 -1
68 -12 48 -20 77 -23 67 -8 -3 5 -12 7 -19 4 -8 -3 -17 -1 -21 5 -3 6 -16 11
-28 11 -21 1 -21 1 3 15 31 18 24 17 55 3z m1475 2 c20 30 9 1 -16 -44 -15
-26 -28 -45 -31 -42 -3 2 3 16 12 30 9 14 15 31 13 38 -3 7 -17 -9 -33 -35
-17 -31 -33 -46 -41 -43 -8 3 -14 1 -14 -4 0 -6 -5 -10 -10 -10 -6 0 -3 11 6
25 9 14 21 22 26 19 12 -7 28 14 28 36 0 13 -1 13 -11 0 -9 -13 -10 -13 -6 0
2 8 11 14 19 12 9 -1 19 5 22 15 6 15 8 15 17 3 8 -13 10 -13 19 0z m-2759
-23 c-13 -13 -26 -3 -16 12 3 6 11 8 17 5 6 -4 6 -10 -1 -17z m2859 -5 c0 -10
-7 -19 -15 -19 -18 0 -19 9 -3 25 16 16 18 15 18 -6z m412 -19 c43 -15 75 -29
73 -33 -3 -4 -24 -10 -47 -13 -24 -4 -61 -10 -83 -15 -58 -12 -65 -7 -65 48 0
56 -5 55 122 13z m-3327 -2 c-4 -34 16 -56 60 -64 17 -2 83 -20 147 -38 l118
-34 0 -81 0 -81 -157 57 c-87 31 -167 61 -178 67 -11 6 -58 23 -105 38 -132
41 -260 88 -260 96 0 10 283 66 347 68 29 1 31 -1 28 -28z m140 12 c6 -1 35
-10 65 -19 30 -9 68 -19 84 -23 16 -3 32 -13 34 -20 3 -10 0 -12 -13 -7 -36
13 -194 56 -209 56 -9 0 -16 4 -16 9 0 12 22 20 35 12 6 -3 15 -7 20 -8z
m2514 -42 c-18 -28 -35 -49 -37 -46 -3 3 10 27 29 54 18 28 35 48 37 46 2 -2
-11 -27 -29 -54z m162 12 c-12 -20 -14 -14 -5 12 4 9 9 14 11 11 3 -2 0 -13
-6 -23z m-2686 -10 c28 -8 66 -21 85 -28 19 -7 52 -15 73 -19 23 -4 37 -13 37
-21 0 -21 19 -25 -219 47 -41 13 -76 29 -79 36 -4 14 13 12 103 -15z m2785
-66 c0 -77 -2 -85 -22 -95 -29 -15 -256 -54 -269 -47 -25 16 -5 34 49 45 31 7
77 18 102 26 l45 14 -63 -6 c-35 -3 -75 -10 -90 -15 -38 -15 -54 -4 -50 33 3
34 -12 27 198 88 41 12 79 26 85 31 5 5 10 9 12 9 2 0 3 -37 3 -83z m-237 58
c-3 -9 -8 -14 -10 -11 -3 3 -2 9 2 15 9 16 15 13 8 -4z m818 -15 c45 0 13 -18
-58 -33 -167 -34 -228 -46 -232 -42 -15 15 19 33 90 48 46 10 100 21 119 26
19 5 41 7 48 5 8 -2 22 -4 33 -4z m-3883 -12 c6 -6 64 -28 129 -49 65 -20 161
-54 213 -74 52 -20 157 -57 233 -82 115 -38 137 -48 137 -65 0 -15 -4 -18 -17
-13 -10 4 -65 24 -123 43 -58 19 -107 39 -108 44 -2 4 -8 6 -12 3 -5 -3 -17
-1 -27 4 -10 5 -47 19 -83 31 -68 23 -82 28 -140 53 -19 8 -60 23 -90 32 -83
27 -140 56 -140 71 0 17 12 18 28 2z m3052 -2 c0 -3 -4 -8 -10 -11 -5 -3 -10
-1 -10 4 0 6 5 11 10 11 6 0 10 -2 10 -4z m-3050 -51 c16 -5 20 -15 21 -58 0
-29 2 -88 4 -132 10 -202 4 -245 -34 -245 -26 0 -41 -21 -41 -57 0 -23 6 -36
18 -40 16 -5 93 -38 237 -100 39 -17 70 -36 69 -42 -1 -6 -2 -22 -3 -36 -1
-34 -42 -51 -124 -54 -34 -1 -65 -7 -69 -14 -18 -28 -7 -68 26 -103 28 -29 35
-46 38 -86 1 -27 0 -56 -3 -66 -10 -30 2 -52 28 -52 22 0 24 2 12 16 -13 16
-20 54 -9 54 9 0 30 -23 30 -33 0 -4 -6 -5 -12 -1 -8 4 -10 3 -5 -2 5 -5 10
-7 11 -4 2 3 10 -1 19 -9 11 -9 17 -10 17 -2 0 6 -4 11 -9 11 -5 0 -11 12 -14
28 l-5 27 23 -29 c12 -16 23 -38 22 -50 0 -30 12 -110 20 -132 5 -13 3 -15 -8
-9 -8 5 -20 17 -27 27 -10 14 -17 16 -27 8 -9 -7 -16 -6 -25 5 -7 8 -16 15
-21 15 -19 0 -7 -16 28 -38 20 -13 31 -17 24 -9 -7 9 -8 18 -3 21 6 3 17 -4
25 -17 22 -33 78 -87 90 -87 7 0 7 4 -1 12 -23 23 -12 28 53 28 65 0 67 -1
113 -46 26 -26 83 -77 127 -115 44 -37 96 -87 115 -111 19 -23 45 -53 57 -65
15 -16 18 -23 8 -23 -8 0 -20 8 -27 18 -7 9 -24 23 -37 30 l-24 14 21 -29 c11
-15 32 -39 46 -52 14 -14 26 -33 26 -43 0 -10 7 -21 15 -24 9 -4 13 -15 11
-28 -2 -11 -1 -15 1 -8 3 6 9 12 14 12 6 0 6 -8 -1 -19 -8 -16 -6 -22 7 -30
10 -5 15 -13 10 -17 -12 -12 -57 49 -51 68 4 14 1 16 -12 11 -12 -4 -15 -3
-10 5 4 7 1 12 -9 12 -13 0 -14 -3 -3 -21 7 -12 18 -29 23 -38 14 -24 38 -47
54 -52 14 -5 24 -49 12 -49 -3 0 -17 14 -30 31 -13 16 -33 35 -45 41 -11 6 3
-17 33 -50 48 -57 53 -65 47 -97 -4 -19 -11 -35 -16 -35 -6 0 -10 -11 -10 -24
0 -13 -6 -28 -13 -34 -10 -8 -50 31 -171 167 -87 99 -172 192 -189 208 -18 15
-59 59 -92 97 -33 38 -83 94 -112 124 -29 31 -50 58 -48 60 3 3 11 -1 20 -8 9
-7 19 -10 22 -6 4 4 3 10 -2 14 -6 4 -16 15 -24 25 -12 15 -12 17 3 11 9 -3
16 -1 16 6 0 6 5 8 10 5 6 -4 8 -15 5 -24 -3 -11 6 -29 25 -49 27 -29 40 -38
40 -29 0 2 -11 17 -25 33 -14 16 -23 35 -20 42 3 8 -1 19 -8 26 -6 7 -30 36
-52 64 -22 28 -53 56 -69 61 -22 8 -26 8 -19 -2 9 -11 15 -87 8 -87 -7 0 -56
103 -87 180 -43 108 -95 305 -119 450 -25 148 -29 429 -9 580 14 109 16 115
36 96 8 -8 23 -18 34 -21z m1625 14 c25 -6 42 -16 39 -21 -4 -6 6 -8 27 -3 25
4 30 3 19 -4 -12 -9 -10 -11 13 -11 20 0 27 -5 27 -19 0 -14 -6 -17 -27 -15
l-28 4 30 -15 c29 -14 30 -14 5 -15 -19 0 -22 -2 -10 -9 8 -6 18 -7 22 -5 4 3
8 -11 8 -31 0 -35 -1 -37 -27 -31 l-28 6 28 -17 c45 -29 31 -32 -50 -11 -103
25 -125 37 -117 60 7 25 12 65 13 111 1 20 4 37 7 37 3 0 25 -5 49 -11z m1078
-4 c-3 -9 -8 -14 -10 -11 -3 3 -2 9 2 15 9 16 15 13 8 -4z m-1533 -74 c80 -27
98 -37 77 -39 -16 -2 -34 1 -40 6 -7 5 -29 13 -51 16 -21 4 -46 11 -55 16 -9
4 -35 13 -58 19 -51 14 -60 36 -10 26 17 -4 79 -24 137 -44z m1350 -15 c-18
-31 -37 -59 -42 -62 -14 -9 -10 0 32 68 44 73 51 68 10 -6z m-2443 38 c-3 -3
-12 -4 -19 -1 -8 3 -5 6 6 6 11 1 17 -2 13 -5z m2358 -26 l-6 -23 20 23 c35
40 34 23 -3 -28 -20 -28 -36 -55 -36 -60 0 -6 -5 -10 -11 -10 -6 0 -2 16 10
36 12 19 19 40 15 45 -6 11 2 39 11 39 4 0 4 -10 0 -22z m146 -21 c-6 -15 -17
-27 -25 -27 -8 0 -21 -3 -30 -6 -9 -3 -16 -1 -16 5 0 6 9 11 19 11 12 0 24 12
32 30 16 36 34 24 20 -13z m-1471 1 c41 -11 92 -25 113 -30 20 -6 37 -17 37
-24 0 -18 6 -19 -136 23 -84 25 -124 41 -124 51 0 9 6 12 18 7 9 -4 51 -16 92
-27z m-905 2 c-3 -5 -12 -10 -18 -10 -7 0 -6 4 3 10 19 12 23 12 15 0z m2170
-30 c-31 -49 -32 -59 -4 -34 22 19 22 19 10 -4 -8 -14 -18 -21 -27 -18 -8 3
-14 1 -14 -4 0 -6 -10 -10 -22 -9 -13 0 -17 3 -10 6 6 2 10 9 6 14 -3 5 0 8 8
7 7 -2 12 5 12 14 -1 10 2 16 6 13 5 -3 18 8 30 25 31 44 35 37 5 -10z m-2119
21 c5 -5 54 -23 109 -41 112 -37 261 -92 312 -116 l33 -16 0 -229 c0 -126 -3
-229 -6 -229 -5 0 -82 31 -141 56 -17 8 -34 14 -38 14 -4 0 -39 16 -79 34 -39
19 -116 54 -171 77 -55 23 -115 48 -134 56 -21 9 -32 10 -29 3 4 -12 76 -45
278 -130 69 -28 139 -58 155 -65 17 -8 57 -23 90 -35 61 -23 83 -36 74 -44 -7
-7 -129 39 -239 89 -52 24 -160 71 -240 105 -190 80 -249 109 -229 109 9 1 33
-6 52 -14 51 -21 57 -18 22 11 -19 17 -23 24 -11 20 13 -5 17 -2 12 9 -8 21 0
20 108 -26 54 -22 100 -38 103 -35 6 6 -75 49 -101 53 -10 2 -26 8 -35 13 -22
13 5 13 30 0 10 -6 19 -7 19 -3 0 5 -12 14 -27 21 -16 7 -39 21 -53 32 l-25
21 30 -13 c17 -6 38 -19 49 -27 10 -9 20 -15 22 -13 9 7 70 -12 141 -44 92
-42 130 -45 48 -4 -33 16 -67 30 -76 30 -8 0 -19 4 -25 9 -5 5 -54 28 -109 51
-55 22 -88 39 -73 37 15 -2 25 0 22 4 -3 5 -12 9 -20 9 -8 0 -14 5 -14 10 0 6
-9 10 -21 10 -11 0 -17 4 -14 10 10 17 76 4 202 -40 67 -23 128 -40 134 -38 7
2 -38 23 -99 47 -62 24 -112 45 -112 48 0 2 10 1 22 -3 32 -10 112 -14 102 -5
-16 14 -182 70 -188 64 -3 -4 -6 -1 -6 6 0 14 43 8 99 -15 39 -16 55 -18 46
-4 -3 5 -24 14 -45 20 -22 6 -39 16 -37 21 1 6 -16 18 -38 25 -22 8 -44 19
-50 25 -5 6 7 4 29 -5 21 -9 42 -16 46 -16 13 0 7 35 -9 47 -15 11 -14 12 1
13 9 0 19 -4 22 -8 8 -13 186 -85 193 -78 10 10 -27 32 -94 56 -35 12 -60 26
-57 31 7 11 27 12 40 0z m2074 -3 c-5 -7 -19 -24 -30 -38 -19 -23 -19 -23 1
13 11 20 25 37 30 37 6 0 5 -5 -1 -12z m378 -5 c-2 -10 -8 -18 -15 -18 -6 0
-15 -3 -19 -7 -4 -5 2 -8 14 -8 26 0 29 -26 5 -38 -10 -5 -47 -15 -83 -21 -36
-7 -84 -19 -108 -27 -56 -19 -59 -18 -64 10 -5 26 -1 28 125 52 26 4 35 9 26
15 -17 10 -15 12 51 36 70 26 72 27 68 6z m-2594 -8 c20 -8 36 -17 36 -20 0
-6 -63 16 -74 26 -14 13 -3 11 38 -6z m2155 -34 c-22 -39 -39 -53 -39 -31 0 6
3 10 8 10 4 0 16 16 26 35 11 19 21 33 24 31 2 -3 -6 -23 -19 -45z m1031 -174
l0 -224 -82 -12 c-116 -17 -160 -30 -152 -43 4 -6 0 -16 -8 -22 -8 -6 -20 -22
-27 -36 -9 -16 3 -8 34 23 26 27 49 46 52 43 3 -3 -15 -26 -41 -52 -25 -27
-46 -52 -46 -58 0 -11 28 13 88 77 55 58 69 54 18 -5 -72 -83 -79 -89 -95 -86
-9 1 -21 -1 -28 -5 -8 -5 -11 3 -9 26 2 19 6 39 10 45 3 6 1 12 -6 14 -7 3 -8
10 -4 17 7 10 10 10 16 1 9 -15 30 -4 30 16 0 10 -7 13 -25 8 l-25 -6 2 223 3
224 127 21 c69 12 132 24 140 27 7 3 16 6 21 6 4 1 7 -99 7 -222z m-2157 172
c105 -32 107 -33 87 -51 -31 -29 -66 -38 -151 -38 l-79 0 0 66 c0 57 2 65 18
60 9 -2 65 -19 125 -37z m1327 32 c0 -13 -31 -43 -38 -37 -3 3 3 15 13 26 20
22 25 24 25 11z m-336 -56 c-6 -16 -24 -21 -24 -7 0 11 11 22 21 22 5 0 6 -7
3 -15z m56 5 c0 -5 -5 -10 -11 -10 -5 0 -7 5 -4 10 3 6 8 10 11 10 2 0 4 -4 4
-10z m-90 -4 c0 -3 -4 -8 -10 -11 -5 -3 -10 -1 -10 4 0 6 5 11 10 11 6 0 10
-2 10 -4z m-492 -22 c88 -24 142 -46 142 -56 0 -5 -10 -6 -22 -2 -13 4 -59 17
-102 28 -44 12 -81 27 -84 34 -5 15 -2 15 66 -4z m1102 -238 l0 -225 -45 -7
c-33 -5 -45 -11 -45 -24 0 -9 -9 -25 -21 -36 -11 -10 -25 -26 -30 -35 -7 -13
-3 -16 17 -13 14 1 35 11 47 20 12 10 16 12 10 4 -7 -8 -13 -18 -13 -23 0 -13
27 10 51 44 l20 28 -23 -2 c-13 -1 -38 -17 -55 -37 -18 -19 -33 -30 -33 -25 0
6 16 28 36 49 26 29 38 36 43 27 6 -9 11 -10 15 -2 12 19 26 12 26 -14 0 -14
-7 -28 -15 -31 -8 -4 -15 -13 -15 -21 0 -13 2 -13 17 -2 15 13 15 12 4 -10
-10 -18 -15 -21 -21 -10 -7 11 -12 10 -28 -5 -14 -12 -21 -14 -24 -5 -3 8 -9
6 -21 -5 -10 -11 -17 -13 -17 -5 0 8 -4 8 -12 1 -15 -12 -88 -27 -88 -18 0 4
15 22 33 40 52 53 88 96 80 96 -5 0 -28 -5 -53 -11 -25 -6 -55 -13 -67 -14
-39 -5 -63 -16 -57 -26 3 -5 10 -6 16 -3 7 4 8 2 4 -4 -4 -7 -13 -12 -20 -12
-7 0 -21 -9 -31 -20 -14 -16 -16 -23 -7 -32 10 -10 23 -2 58 35 26 26 51 47
57 47 6 0 -10 -21 -36 -46 -26 -25 -47 -50 -47 -56 0 -6 30 19 66 57 36 37 68
64 71 61 4 -4 -7 -21 -24 -39 -16 -17 -36 -40 -44 -50 -33 -42 -43 -48 -64
-43 -16 4 -25 1 -29 -10 -5 -13 -9 -14 -21 -4 -12 10 -16 9 -21 -3 -4 -11 -17
-15 -42 -13 -22 2 -44 -3 -54 -12 -16 -13 -18 -13 -18 1 0 8 11 24 25 35 14
11 25 24 25 28 0 4 -20 -11 -44 -35 -28 -28 -50 -42 -60 -38 -8 3 -18 2 -21
-3 -4 -6 -13 -10 -21 -10 -8 0 19 34 61 76 87 89 111 97 28 11 -30 -32 -52
-62 -48 -65 4 -4 38 26 76 67 38 41 69 70 69 66 0 -5 -10 -19 -22 -32 -12 -13
-19 -26 -15 -29 7 -7 67 55 67 69 0 9 -80 1 -104 -10 -6 -2 -42 -40 -79 -84
-38 -43 -76 -79 -85 -79 -9 0 12 27 51 67 65 64 78 83 57 83 -5 0 -10 -4 -10
-10 0 -5 -6 -10 -14 -10 -15 0 -116 -104 -116 -120 0 -6 -4 -9 -10 -5 -6 3 -5
15 2 30 6 14 13 23 16 21 9 -9 33 24 26 35 -4 7 -3 9 4 5 6 -3 13 -2 17 4 3 5
1 10 -6 10 -7 0 -4 7 7 15 18 14 18 14 -4 15 -15 0 -29 -10 -40 -30 -9 -16
-19 -30 -22 -30 -3 0 -6 83 -6 185 l-2 185 199 0 199 0 0 99 c0 86 2 100 18
105 32 9 208 42 240 45 9 1 12 -50 12 -223z m-1072 185 c101 -28 120 -36 111
-46 -5 -5 -219 41 -226 49 -4 4 5 26 10 26 1 0 48 -13 105 -29z m-1443 -1 c3
-6 -1 -7 -9 -4 -18 7 -21 14 -7 14 6 0 13 -4 16 -10z m-35 -10 c13 -9 13 -10
0 -9 -8 0 -24 4 -35 9 l-20 9 20 0 c11 0 27 -4 35 -9z m1407 -19 c32 -11 71
-22 87 -26 21 -4 26 -9 17 -14 -16 -11 9 -21 50 -21 16 0 29 -4 29 -9 0 -11
-25 -17 -128 -31 -40 -5 -89 -14 -110 -18 -41 -9 -72 -5 -72 9 0 5 -7 9 -17 9
-28 0 -7 11 49 26 l53 13 -60 -5 -60 -6 41 31 c23 17 45 38 48 46 7 19 4 19
73 -4z m183 -326 c0 -175 -3 -225 -12 -224 -18 3 -48 -11 -48 -23 0 -5 -20
-34 -45 -62 -25 -29 -45 -55 -45 -58 0 -3 9 -4 19 -3 22 1 54 25 46 33 -3 3
-12 -3 -20 -14 -8 -10 -15 -14 -15 -8 0 22 27 36 49 25 25 -14 31 -14 31 0 0
5 -5 7 -11 3 -7 -4 -10 -1 -7 7 3 8 11 13 18 11 7 -2 10 3 7 12 -3 8 2 21 12
30 17 15 18 13 20 -38 1 -53 1 -54 -31 -61 -18 -4 -37 -7 -42 -6 -4 1 -13 -2
-20 -7 -6 -5 -28 -9 -48 -11 -45 -2 -49 12 -15 49 29 32 77 95 77 102 0 3 -22
3 -50 0 l-50 -5 0 99 c0 112 -19 204 -56 277 -13 27 -23 51 -22 52 2 2 50 11
108 20 58 9 112 18 120 19 8 2 18 4 23 5 4 0 7 -100 7 -224z m2182 163 c-14
-14 -84 -19 -76 -6 3 4 9 6 14 3 5 -3 12 0 15 6 4 5 13 8 21 5 7 -3 16 -1 20
5 3 6 9 8 12 4 3 -3 0 -11 -6 -17z m32 0 c-4 -7 -16 -23 -27 -35 -21 -24 -11
-32 12 -10 11 10 11 8 2 -10 -6 -13 -18 -23 -26 -23 -7 0 -20 -3 -29 -6 -9 -3
-16 -1 -16 5 0 6 7 11 15 11 8 0 15 7 15 16 0 22 -23 12 -37 -16 -14 -28 -32
-40 -50 -33 -21 8 -15 23 8 20 12 -1 24 3 26 9 2 7 -6 10 -24 6 -25 -5 -27 -4
-14 11 15 19 26 23 16 7 -11 -18 35 -4 51 16 11 13 17 15 20 7 9 -20 20 -15
32 12 6 14 16 25 22 25 6 0 8 -6 4 -12z m-3854 -97 c19 -8 78 -34 131 -57 53
-24 99 -44 102 -44 4 0 30 -11 59 -24 29 -13 78 -33 108 -44 126 -48 195 -81
198 -98 5 -22 -29 -14 -125 31 -40 19 -84 37 -98 41 -14 3 -25 10 -25 15 0 5
-6 9 -13 9 -8 0 -79 27 -158 61 -79 33 -166 69 -194 78 -72 26 -125 60 -125
80 0 16 6 15 53 -8 29 -14 68 -32 87 -40z m1025 10 c28 -11 63 -24 79 -30 16
-7 27 -14 24 -17 -3 -2 -17 0 -32 5 -42 17 -32 -11 12 -30 31 -14 33 -17 12
-16 -14 0 -30 4 -37 9 -6 5 -26 13 -45 18 -30 8 -31 8 -14 -5 10 -8 42 -22 70
-31 28 -9 56 -21 61 -27 7 -7 5 -8 -5 -5 -56 19 -62 20 -56 7 4 -8 1 -6 -8 5
-8 10 -21 16 -29 13 -8 -3 -34 4 -58 14 -27 13 -45 16 -47 10 -2 -6 -13 -11
-24 -11 -33 0 -16 -10 89 -52 54 -22 102 -46 106 -54 5 -8 12 -12 17 -9 4 3
11 -2 14 -11 6 -17 -8 -14 -73 12 -65 27 -55 12 14 -21 39 -19 63 -35 53 -35
-9 0 -18 -5 -20 -11 -2 -6 -35 4 -82 25 -43 20 -86 36 -94 36 -23 0 -4 -14 43
-33 22 -8 70 -29 107 -45 55 -25 66 -34 61 -50 -4 -16 -12 -20 -40 -17 -19 2
-40 8 -47 15 -8 8 -4 9 18 0 61 -23 32 -2 -42 29 -112 49 -110 48 -93 28 7 -9
21 -17 30 -17 20 -1 51 -24 51 -39 0 -6 7 -11 15 -11 8 0 15 -6 15 -14 0 -8 7
-17 16 -20 9 -4 14 -9 11 -13 -4 -3 -12 -2 -19 4 -7 5 -52 25 -100 44 l-88 34
0 168 0 167 43 0 c23 0 65 -9 92 -19z m2673 -20 c3 -8 -1 -12 -9 -9 -7 2 -15
10 -17 17 -3 8 1 12 9 9 7 -2 15 -10 17 -17z m-586 -35 c6 4 6 -2 -1 -14 -16
-30 -36 -40 -21 -11 l12 24 -23 -24 c-17 -16 -20 -25 -11 -28 6 -3 9 -10 5
-16 -3 -7 6 -1 20 12 28 26 38 14 11 -13 -8 -9 -11 -16 -6 -16 5 0 17 12 27
26 21 32 29 26 12 -9 -6 -15 -19 -27 -27 -27 -8 0 -25 -3 -38 -6 -21 -6 -22
-4 -16 22 7 27 6 28 -10 15 -9 -8 -14 -21 -11 -30 3 -8 3 -12 -1 -8 -4 4 -13
2 -21 -5 -32 -27 -18 3 29 62 29 35 54 58 56 52 2 -7 8 -9 14 -6z m64 3 c3 -6
1 -16 -5 -22 -9 -9 -11 -8 -6 6 10 24 -7 21 -23 -4 -7 -12 -16 -18 -19 -15 -7
7 26 46 38 46 4 0 11 -5 15 -11z m12 -58 c0 -23 -4 -30 -24 -34 -13 -2 -24 -1
-24 4 0 5 41 58 46 59 1 0 1 -13 2 -29z m381 6 c16 -20 4 -27 -46 -27 -36 0
-43 3 -43 20 0 17 7 20 39 20 21 0 44 -6 50 -13z m-2512 -26 c43 -15 84 -26
92 -23 9 3 11 0 6 -8 -10 -17 -38 -9 -165 48 -48 21 -11 12 67 -17z m2563 -36
c43 -14 16 -25 -60 -25 -62 0 -80 3 -80 14 0 8 6 16 13 19 15 6 101 0 127 -8z
m-3207 -87 l188 -93 -3 -105 -3 -105 -104 0 -104 0 -18 -30 c-22 -37 -24 -51
-5 -36 11 9 15 9 18 -1 3 -7 12 1 23 19 14 24 21 28 31 19 11 -10 -4 -49 -44
-115 -1 -2 -5 -2 -8 1 -3 4 6 24 20 47 14 22 26 46 26 53 0 16 -45 -50 -54
-80 -7 -20 -10 -21 -23 -10 -9 7 -18 12 -20 11 -1 -2 -10 -3 -19 -3 -14 0 -14
3 -4 15 7 9 10 18 6 22 -3 3 -6 1 -6 -7 0 -10 -3 -10 -16 1 -15 12 -16 11 -10
-9 4 -12 4 -22 -1 -21 -4 1 -16 -1 -25 -5 -27 -12 -73 7 -76 32 -2 12 -7 22
-12 22 -5 0 -7 7 -4 15 6 15 25 21 23 8 -4 -26 3 -23 19 7 9 19 22 34 27 33
15 -3 18 -34 5 -47 -10 -8 -11 -5 -5 14 10 35 0 23 -18 -22 -14 -33 -14 -37 0
-42 10 -4 13 -2 10 7 -3 7 4 19 14 25 21 13 26 3 8 -15 -6 -6 -9 -17 -7 -24 2
-7 14 3 26 22 12 19 22 28 22 22 0 -7 5 -13 10 -13 6 0 10 6 10 13 0 6 8 21
17 32 l16 20 -8 -20 c-16 -46 -16 -49 4 -25 26 32 26 46 1 53 -11 3 -20 2 -20
-2 0 -4 -6 -16 -14 -26 -13 -18 -14 -18 -10 10 l5 30 -16 -27 c-20 -35 -28
-36 -15 -2 13 33 13 47 0 39 -6 -4 -22 1 -36 10 -13 9 -29 13 -34 10 -6 -3
-10 2 -10 13 0 28 -11 34 -26 14 -12 -16 -13 -16 -13 3 0 11 6 29 14 39 8 11
15 25 15 30 0 6 -5 4 -10 -4 -8 -13 -10 -12 -11 5 -5 66 14 214 32 247 5 10
15 18 22 18 6 0 96 -42 200 -92z m2777 82 c0 -5 -15 -10 -32 -10 -25 0 -29 3
-18 10 20 13 50 13 50 0z m-1 -114 c-6 -139 -50 -176 -207 -176 l-93 0 3 107
3 106 30 17 c17 10 33 16 37 14 4 -3 9 0 13 6 4 6 51 10 112 10 l105 0 -3 -84z
m-598 -10 c19 11 8 -34 -13 -52 -19 -17 -21 -17 -15 -1 18 46 20 52 14 47 -17
-16 -57 -83 -52 -89 4 -3 12 1 18 9 7 8 22 16 35 17 22 3 22 1 22 -105 -1
-105 -1 -107 -30 -136 -17 -16 -30 -35 -30 -41 0 -7 -7 -18 -15 -25 -16 -13
-20 -30 -7 -30 4 0 20 23 37 50 16 28 33 50 37 50 14 0 9 -15 -17 -50 -14 -19
-25 -41 -25 -49 0 -9 9 -2 21 17 27 41 31 40 23 -3 l-6 -35 268 -1 c320 -1
330 -1 379 20 17 7 35 14 40 15 6 1 17 6 25 10 8 5 12 6 8 1 -4 -4 -3 -14 3
-21 7 -9 7 -19 -1 -35 -9 -15 -14 -18 -20 -10 -5 10 -9 9 -13 -2 -4 -11 -32
-13 -149 -11 -78 2 -241 4 -361 5 -119 0 -219 5 -222 9 -3 4 -21 4 -40 0 -19
-4 -37 -4 -40 1 -3 4 -11 6 -19 3 -9 -3 -13 5 -13 25 0 19 5 27 13 24 6 -2 15
1 19 7 6 9 9 9 15 0 5 -8 16 2 33 31 14 24 23 46 20 49 -3 3 -8 -1 -10 -7 -3
-7 -14 -23 -25 -35 -18 -21 -19 -21 -13 -3 17 47 17 55 3 55 -8 0 -23 -18 -34
-39 -10 -22 -22 -37 -27 -34 -4 2 2 20 13 38 13 21 17 36 10 40 -5 3 -10 -2
-10 -11 0 -10 -3 -14 -7 -11 -3 4 -6 39 -5 77 1 39 -3 70 -8 70 -6 0 -10 5
-10 10 0 16 42 70 50 65 4 -2 19 16 35 41 28 44 47 55 25 14 -21 -39 -2 -33
27 8 15 22 30 36 31 31 2 -5 8 -7 13 -3z m-181 -46 c-6 -12 -14 -19 -17 -16
-3 3 -14 1 -24 -5 -23 -12 -24 -1 -3 26 12 16 17 17 23 7 6 -11 10 -10 15 4 3
9 9 14 12 11 3 -3 0 -15 -6 -27z m63 14 c-3 -7 -10 -11 -16 -9 -7 3 -29 -19
-49 -47 -21 -29 -38 -46 -38 -39 0 11 -3 11 -15 1 -25 -21 -17 6 11 37 22 25
24 25 14 5 -18 -37 -3 -38 19 -1 11 19 26 42 32 51 14 19 49 20 42 2z m-862
-11 c-11 -21 -51 -56 -51 -46 0 7 51 63 57 63 2 0 -1 -8 -6 -17z m-112 -42
c-19 -22 -36 -38 -38 -36 -4 5 62 83 68 79 2 -2 -12 -21 -30 -43z m847 15 c-3
-29 -36 -84 -36 -59 0 5 5 14 11 20 6 6 9 17 7 23 -2 6 -14 -9 -26 -34 -19
-37 -28 -45 -48 -44 -19 2 -23 7 -18 23 5 18 4 18 -13 -3 -15 -18 -21 -20 -31
-10 -10 10 -15 10 -23 -2 -9 -13 -10 -12 -5 3 3 9 1 17 -4 17 -6 0 -10 -4 -10
-10 0 -5 -5 -10 -11 -10 -20 0 40 85 66 92 30 8 31 0 4 -46 -12 -20 -17 -36
-12 -36 6 0 20 20 33 45 13 25 27 45 32 45 5 0 1 -11 -8 -25 -15 -23 -12 -65
5 -65 4 0 22 25 40 55 18 30 37 55 41 55 5 0 7 -15 6 -34z m-1358 -10 c48 -18
99 -37 115 -42 15 -5 27 -13 27 -19 -1 -19 -61 -3 -139 36 -43 21 -84 39 -90
39 -6 0 -11 5 -11 10 0 14 0 14 98 -24z m1299 -1 c-29 -45 -42 -45 -16 0 12
19 25 35 30 35 4 0 -2 -16 -14 -35z m-807 15 c0 -5 -2 -10 -4 -10 -3 0 -8 5
-11 10 -3 6 -1 10 4 10 6 0 11 -4 11 -10z m631 -51 c-14 -23 -29 -34 -45 -34
-14 -1 -22 3 -19 8 3 4 12 6 20 3 10 -4 13 -1 8 13 -3 11 -1 22 4 26 7 4 9 -1
5 -12 -3 -11 3 -7 16 10 30 37 36 28 11 -14z m-1091 -19 c58 -22 115 -45 128
-50 20 -9 32 -40 15 -40 -5 0 -53 22 -107 49 -55 27 -105 47 -113 44 -7 -3
-13 0 -13 6 0 6 -3 10 -7 10 -21 -3 -33 3 -33 17 0 9 6 14 13 11 6 -3 59 -24
117 -47z m1019 0 c-18 -24 -25 -27 -49 -20 -18 5 -32 4 -39 -3 -13 -13 -15 1
-5 27 8 21 24 20 24 -1 0 -15 4 -13 21 7 20 24 20 24 14 3 -4 -14 -2 -23 4
-23 6 0 11 6 11 13 0 17 21 38 32 31 4 -3 -2 -18 -13 -34z m370 6 c-11 -24
-65 -41 -95 -29 -28 10 -13 20 27 18 30 -2 46 3 57 16 22 25 24 24 11 -5z
m-1468 -55 l-24 -19 41 -27 c41 -27 58 -53 26 -41 -9 3 -33 6 -55 6 -39 0 -39
0 -39 39 0 34 4 41 28 49 42 16 49 13 23 -7z m99 -10 c0 -5 -10 -13 -21 -16
-17 -6 -19 -9 -8 -16 9 -6 10 -9 2 -9 -6 0 -18 6 -25 14 -8 8 -23 16 -34 19
-10 3 0 4 24 1 27 -4 42 -2 42 5 0 6 5 11 10 11 6 0 10 -4 10 -9z m598 -105
l1 -115 -30 -6 c-17 -4 -36 -2 -43 4 -10 8 -22 8 -40 1 -25 -9 -28 -7 -41 23
-19 47 -25 199 -6 169 6 -10 10 -10 21 3 27 32 31 13 6 -31 -14 -26 -26 -49
-26 -51 0 -12 30 28 49 65 12 23 26 42 32 42 6 0 2 -15 -9 -32 -74 -126 -78
-138 -17 -52 40 55 47 53 11 -4 -12 -20 -26 -48 -29 -62 -4 -14 -4 -19 -1 -12
10 21 26 13 19 -10 -3 -13 11 5 31 40 43 75 57 76 19 2 -31 -61 -29 -73 4 -25
14 21 25 53 26 79 2 25 7 51 11 57 4 7 3 10 -2 6 -5 -3 -25 -35 -44 -71 -18
-36 -36 -63 -39 -61 -2 3 7 27 21 54 19 36 23 52 15 60 -8 8 -8 14 1 23 9 9
12 8 13 -7 0 -18 1 -18 11 3 24 50 34 24 36 -92z m-528 62 c0 -5 -6 -8 -12 -8
-7 0 -20 -5 -28 -10 -13 -8 -12 -11 4 -23 18 -14 15 -37 -5 -37 -6 0 -7 5 -4
10 3 6 2 10 -2 10 -5 0 -22 -25 -38 -55 -29 -53 -35 -57 -85 -57 -45 0 -50 2
-50 27 0 14 3 25 8 25 4 0 16 16 26 35 11 19 23 35 28 35 12 0 10 -4 -13 -47
l-21 -38 41 45 c23 26 38 36 34 25 -6 -20 -6 -20 15 -1 27 23 28 13 3 -22 -10
-15 -24 -38 -31 -52 -12 -23 -12 -24 4 -11 16 13 66 102 66 116 0 4 -4 3 -10
0 -5 -3 -10 -2 -10 4 0 5 5 13 11 17 8 5 8 8 0 13 -6 4 7 7 29 6 22 0 40 -3
40 -7z m23 -34 c-3 -8 0 -14 6 -14 6 0 11 7 11 15 0 8 4 15 10 15 11 0 3 -27
-15 -50 -12 -16 -35 -67 -35 -78 0 -4 11 11 25 33 15 25 24 33 25 23 0 -10 3
-18 8 -18 4 0 8 -15 9 -33 1 -27 -2 -32 -23 -33 -13 -1 -24 3 -24 10 0 6 -4 5
-9 -3 -6 -9 -19 -12 -37 -8 -16 3 -36 1 -46 -4 -27 -15 -30 6 -6 51 12 23 24
37 26 31 5 -15 22 -14 22 2 0 7 10 24 22 37 17 18 18 22 5 17 -9 -3 -19 -2
-21 2 -8 12 2 19 29 19 16 0 22 -5 18 -14z m-932 -21 c-6 -11 -11 -13 -11 -5
0 7 -6 10 -12 7 -7 -4 -4 1 6 9 24 19 32 14 17 -11z m271 -28 c-12 -19 -17
-35 -12 -35 5 0 19 18 31 40 12 22 24 38 26 36 2 -1 -8 -24 -23 -49 -14 -26
-21 -47 -15 -47 6 0 18 14 27 32 16 31 54 77 54 65 0 -8 -40 -77 -61 -105 -12
-16 -19 -19 -23 -10 -5 10 -7 10 -12 1 -7 -16 -54 -17 -54 -2 0 6 13 28 28 48
16 20 32 45 36 55 3 10 9 16 12 13 4 -3 -3 -22 -14 -42z m118 25 c0 -5 -4 -10
-8 -10 -5 0 -16 -16 -25 -35 -13 -28 -14 -35 -3 -35 8 0 16 9 19 21 3 12 10
18 16 14 14 -8 14 -35 1 -55 -9 -13 -11 -13 -20 0 -9 13 -11 13 -20 0 -8 -13
-10 -13 -10 -1 0 11 -4 9 -15 -5 -13 -17 -14 -17 -15 -1 0 9 15 39 33 67 31
47 47 61 47 40z m330 3 c-1 -5 -7 -19 -15 -33 -10 -18 -14 -20 -15 -8 0 23 11
48 21 48 5 0 9 -3 9 -7z m2488 -91 c-20 -23 -30 -52 -18 -52 6 0 10 5 10 10 0
18 45 80 58 80 10 0 8 -8 -5 -32 -10 -18 -21 -34 -25 -36 -10 -5 -10 -22 0
-22 4 0 18 20 31 45 13 25 30 45 37 45 18 0 18 -9 0 -29 -8 -9 -17 -29 -21
-46 -5 -25 -4 -27 5 -12 6 9 15 15 19 13 4 -3 15 13 25 34 10 22 22 40 27 40
12 0 11 -14 -2 -27 -6 -6 -13 -26 -14 -45 -2 -18 -3 -37 -4 -41 -1 -11 -93 -6
-108 5 -7 5 -14 5 -18 -2 -8 -13 -55 -13 -55 0 0 18 64 114 68 101 2 -7 -2
-20 -10 -29z m192 6 c0 -4 -6 -5 -14 -2 -8 3 -12 12 -9 21 5 12 7 12 14 1 5
-7 9 -16 9 -20z m33 1 c3 -10 1 -19 -5 -19 -5 0 -6 -5 -3 -10 4 -6 12 -4 21 5
9 8 13 19 9 25 -3 6 1 7 9 4 20 -8 20 -7 -9 -54 -32 -50 -56 -51 -79 -3 -17
35 -17 36 0 22 16 -12 17 -12 11 3 -3 10 -3 17 1 17 4 -1 14 -1 22 0 11 1 11
4 2 13 -16 16 -15 29 2 22 8 -3 16 -14 19 -25z m-1675 -56 c-32 -2 -86 -2
-120 0 -35 2 -9 3 57 3 66 0 94 -1 63 -3z m89 1 c-3 -3 -12 -4 -19 -1 -8 3 -5
6 6 6 11 1 17 -2 13 -5z m373 -3 c0 -11 -315 -9 -326 2 -4 4 68 7 159 7 92 0
167 -4 167 -9z m1152 -1 c4 -28 2 -33 -14 -36 -19 -2 -22 5 -12 30 7 18 23 22
26 6z m-3492 -19 c5 -11 6 -22 1 -25 -4 -3 -13 6 -19 19 -14 30 2 34 18 6z
m34 -34 c-11 -6 -22 -15 -26 -21 -4 -6 -8 -7 -8 -2 0 14 34 44 44 38 5 -2 0
-9 -10 -15z m617 -370 c12 -22 12 -22 -10 -3 -11 11 -21 23 -21 28 0 14 19 -1
31 -25z m2549 -326 c0 -3 -33 -30 -73 -60 -366 -269 -808 -411 -1276 -411
-274 0 -541 56 -841 177 -53 21 -197 99 -203 110 -3 5 11 8 31 9 31 1 139 12
297 30 31 3 233 19 360 29 39 3 108 9 155 15 47 5 166 14 265 20 99 6 203 13
230 15 28 3 133 9 235 15 102 6 203 12 225 15 55 6 300 26 415 34 132 9 180 9
180 2z"/>
<path d="M930 4050 c0 -5 7 -7 15 -4 8 4 15 8 15 10 0 2 -7 4 -15 4 -8 0 -15
-4 -15 -10z"/>
<path d="M2627 3943 c-1 -1 -27 -4 -57 -7 -135 -13 -175 -30 -55 -23 93 6 225
24 233 31 3 3 -23 5 -57 3 -35 -1 -63 -3 -64 -4z"/>
<path d="M3558 3623 c-8 -10 -19 -25 -23 -33 -7 -12 -6 -13 7 -3 8 7 18 10 21
6 8 -7 47 26 47 40 0 6 -9 2 -20 -8 -18 -17 -20 -17 -14 -2 8 22 1 22 -18 0z"/>
<path d="M3209 3598 c-14 -26 -10 -35 6 -14 8 11 18 16 22 12 5 -4 -1 -14 -11
-22 -11 -7 -17 -17 -13 -20 7 -8 57 41 57 55 0 16 -52 6 -61 -11z"/>
<path d="M3178 3590 c-5 -15 -58 -21 -58 -6 0 6 -12 -1 -26 -16 -24 -23 -25
-28 -12 -41 13 -13 17 -11 34 14 22 33 29 36 38 13 3 -8 2 -12 -4 -9 -6 3 -10
2 -10 -4 0 -21 22 -22 41 -2 23 25 24 35 3 27 -14 -5 -15 -4 -4 9 7 9 10 18 7
21 -2 3 -7 0 -9 -6z m-68 -45 c-7 -9 -15 -13 -18 -10 -3 2 1 11 8 20 7 9 15
13 18 10 3 -2 -1 -11 -8 -20z"/>
<path d="M3003 3537 c-17 -23 -30 -44 -27 -46 7 -7 64 61 64 76 0 18 -1 17
-37 -30z"/>
<path d="M2760 3533 c0 -10 -11 -31 -25 -47 -23 -26 -32 -46 -21 -46 6 0 76
96 76 104 0 3 -7 6 -15 6 -8 0 -15 -8 -15 -17z"/>
<path d="M2406 3424 c-20 -30 -19 -35 9 -23 11 4 14 8 6 8 -11 1 -11 4 -1 16
7 9 11 18 8 21 -3 2 -13 -7 -22 -22z"/>
<path d="M2440 3429 c0 -5 5 -7 10 -4 6 3 10 8 10 11 0 2 -4 4 -10 4 -5 0 -10
-5 -10 -11z"/>
<path d="M1049 3884 c26 -11 37 -12 45 -3 8 9 6 10 -6 6 -10 -4 -18 -2 -18 3
0 6 -12 10 -27 10 -28 -1 -28 -1 6 -16z"/>
<path d="M863 3878 c2 -8 21 -13 43 -13 21 -1 49 -6 60 -13 12 -6 36 -13 54
-14 17 -1 34 -6 36 -10 3 -4 10 -8 15 -8 6 0 7 4 4 10 -8 13 -143 52 -155 45
-6 -3 -10 -1 -10 4 0 6 -12 11 -26 11 -16 0 -24 -5 -21 -12z"/>
<path d="M1234 3869 c-3 -5 6 -9 20 -9 31 0 34 6 6 13 -11 3 -23 1 -26 -4z"/>
<path d="M875 3800 c11 -5 29 -8 40 -8 16 0 15 2 -5 8 -34 11 -60 11 -35 0z"/>
<path d="M1594 3749 c-2 -4 4 -10 13 -13 47 -14 286 -66 301 -65 20 0 -126 49
-148 49 -8 0 -48 9 -88 19 -40 10 -75 14 -78 10z"/>
<path d="M1828 3743 c7 -3 16 -2 19 1 4 3 -2 6 -13 5 -11 0 -14 -3 -6 -6z"/>
<path d="M1160 3680 c-12 -8 -10 -10 8 -10 13 0 20 4 17 10 -7 12 -6 12 -25 0z"/>
<path d="M1867 3648 c6 -11 43 -10 43 1 0 5 -11 8 -24 7 -13 0 -22 -4 -19 -8z"/>
<path d="M4031 3679 c-13 -11 -22 -22 -19 -24 2 -3 15 6 28 20 28 30 24 32 -9
4z"/>
<path d="M4052 3667 c-8 -10 -6 -13 7 -13 11 0 17 6 14 13 -3 7 -6 13 -8 13
-1 0 -7 -6 -13 -13z"/>
<path d="M629 3547 c-11 -34 -7 -47 14 -47 18 0 19 2 7 10 -13 9 -13 10 0 10
8 0 22 -5 30 -10 13 -9 13 -10 0 -11 -8 0 28 -13 80 -28 52 -15 99 -25 104
-23 5 3 -22 14 -60 24 -38 11 -70 23 -72 29 -2 5 -11 9 -20 9 -9 0 -32 9 -49
20 -18 11 -33 19 -34 17z"/>
<path d="M622 3459 c-2 -30 -1 -31 28 -27 16 3 28 2 25 0 -7 -7 105 -54 130
-55 11 0 22 -4 25 -7 8 -10 119 -42 132 -38 12 4 -88 41 -197 74 -33 9 -54 19
-47 22 7 2 9 8 6 14 -5 7 2 9 20 4 36 -9 33 0 -4 13 -18 6 -28 6 -25 1 7 -12
-13 -12 -40 0 -18 8 -18 9 5 10 l25 2 -25 8 c-47 15 -56 12 -58 -21z"/>
<path d="M795 3430 c28 -12 37 -12 30 0 -3 6 -16 10 -28 9 -21 0 -21 -1 -2 -9z"/>
<path d="M840 3346 c0 -2 7 -7 16 -10 8 -3 12 -2 9 4 -6 10 -25 14 -25 6z"/>
<path d="M3830 3645 c-7 -9 -10 -18 -7 -21 3 -3 10 4 17 15 13 25 8 27 -10 6z"/>
<path d="M3670 3645 c-7 -9 -10 -18 -7 -21 3 -3 10 4 17 15 13 25 8 27 -10 6z"/>
<path d="M4221 2764 c0 -11 3 -14 6 -6 3 7 2 16 -1 19 -3 4 -6 -2 -5 -13z"/>
<path d="M3959 2268 c-39 -47 -51 -71 -22 -45 11 9 23 14 26 11 4 -4 13 -2 20
4 8 7 17 9 20 5 8 -7 45 24 58 49 15 28 1 21 -32 -14 -16 -18 -29 -27 -29 -20
0 7 -4 10 -10 7 -14 -9 -13 8 2 23 6 6 9 14 7 17 -3 2 -21 -14 -40 -37z"/>
<path d="M3886 2224 c-4 -10 -1 -14 6 -12 15 5 23 28 10 28 -5 0 -13 -7 -16
-16z"/>
<path d="M4102 1820 c0 -14 2 -19 5 -12 2 6 2 18 0 25 -3 6 -5 1 -5 -13z"/>
<path d="M3291 3569 c-12 -12 -20 -24 -16 -27 3 -3 18 6 33 21 31 32 16 37
-17 6z"/>
<path d="M3460 3460 c0 -5 5 -10 11 -10 5 0 7 5 4 10 -3 6 -8 10 -11 10 -2 0
-4 -4 -4 -10z"/>
<path d="M3320 3460 c0 -5 5 -10 10 -10 6 0 10 5 10 10 0 6 -4 10 -10 10 -5 0
-10 -4 -10 -10z"/>
<path d="M1891 3104 c0 -11 3 -14 6 -6 3 7 2 16 -1 19 -3 4 -6 -2 -5 -13z"/>
<path d="M3977 3073 c-4 -3 -7 -11 -7 -17 0 -6 5 -5 12 2 6 6 9 14 7 17 -3 3
-9 2 -12 -2z"/>
<path d="M824 2986 c16 -9 31 -14 34 -11 8 8 0 13 -33 20 l-30 7 29 -16z"/>
<path d="M2906 2774 c-9 -20 -15 -38 -13 -41 5 -4 30 34 40 60 12 32 -9 17
-27 -19z"/>
<path d="M1975 2850 c3 -5 15 -10 26 -10 10 0 19 5 19 10 0 6 -12 10 -26 10
-14 0 -23 -4 -19 -10z"/>
<path d="M425 1680 c-3 -5 1 -10 9 -10 9 0 16 5 16 10 0 6 -4 10 -9 10 -6 0
-13 -4 -16 -10z"/>
<path d="M495 1660 c3 -5 8 -10 11 -10 2 0 4 5 4 10 0 6 -5 10 -11 10 -5 0 -7
-4 -4 -10z"/>
<path d="M430 1647 c0 -8 11 -19 25 -25 l26 -12 -18 25 c-20 27 -33 32 -33 12z"/>
<path d="M1069 934 c24 -44 61 -74 61 -50 0 9 -4 16 -9 16 -5 0 -19 16 -32 35
-31 46 -44 45 -20 -1z"/>
<path d="M1019 894 c6 -3 8 -11 5 -18 -6 -16 32 -51 40 -37 4 5 -3 12 -14 16
-11 4 -19 14 -18 22 2 9 -3 17 -10 19 -7 1 -8 0 -3 -2z"/>
<path d="M1080 870 c0 -5 5 -10 11 -10 5 0 7 5 4 10 -3 6 -8 10 -11 10 -2 0
-4 -4 -4 -10z"/>
<path d="M1100 850 c-9 -6 -10 -10 -3 -10 6 0 15 5 18 10 8 12 4 12 -15 0z"/>
<path d="M1945 2710 c3 -5 13 -10 21 -10 8 0 12 5 9 10 -3 6 -13 10 -21 10 -8
0 -12 -4 -9 -10z"/>
<path d="M1871 2690 c9 -5 38 -14 65 -20 27 -6 57 -13 67 -16 9 -3 17 -1 17 5
0 13 -93 41 -134 41 -24 -1 -27 -3 -15 -10z"/>
<path d="M455 2620 c3 -5 12 -10 19 -10 7 0 39 -10 72 -23 72 -29 123 -42 109
-29 -15 14 -165 72 -187 72 -10 0 -16 -4 -13 -10z"/>
<path d="M600 2500 c0 -11 39 -20 45 -10 3 4 -6 10 -20 12 -14 3 -25 2 -25 -2z"/>
<path d="M381 2336 c2 -2 15 -9 29 -15 24 -11 24 -11 6 3 -16 13 -49 24 -35
12z"/>
<path d="M2905 2650 c-3 -5 1 -10 9 -10 8 0 18 5 21 10 3 6 -1 10 -9 10 -8 0
-18 -4 -21 -10z"/>
<path d="M2660 2057 c0 -7 -23 -37 -50 -66 -28 -30 -48 -56 -45 -60 9 -8 125
121 118 131 -7 13 -23 9 -23 -5z"/>
<path d="M2622 1960 c-15 -20 -18 -28 -7 -24 8 4 15 11 15 16 0 6 7 8 15 4 10
-4 15 1 15 14 0 28 -13 25 -38 -10z"/>
<path d="M1360 2251 c0 -5 20 -16 45 -24 56 -19 58 -14 5 13 -44 23 -50 24
-50 11z"/>
<path d="M1474 2015 c22 -17 40 -20 32 -6 -3 5 -16 11 -28 14 -22 6 -22 5 -4
-8z"/>
<path d="M1382 2000 c2 -6 35 -25 73 -41 73 -30 115 -40 55 -12 -19 8 -57 27
-84 40 -26 13 -46 19 -44 13z"/>
<path d="M726 1615 c-9 -26 -7 -32 5 -12 6 10 9 21 6 23 -2 3 -7 -2 -11 -11z"/>
<path d="M750 1610 c-6 -12 -9 -24 -7 -27 3 -2 11 5 17 17 6 12 9 24 7 27 -3
2 -11 -5 -17 -17z"/>
<path d="M2876 1884 c-9 -24 -7 -28 9 -14 17 14 20 30 6 30 -5 0 -12 -7 -15
-16z"/>
<path d="M3680 1549 c0 -5 5 -7 10 -4 6 3 10 8 10 11 0 2 -4 4 -10 4 -5 0 -10
-5 -10 -11z"/>
<path d="M2572 1870 c-18 -29 -15 -38 4 -12 9 13 14 25 12 27 -2 2 -9 -5 -16
-15z"/>
<path d="M1357 1629 c-3 -13 -1 -19 6 -16 15 5 22 37 9 37 -5 0 -12 -9 -15
-21z"/>
<path d="M1501 1652 c-17 -31 -13 -40 5 -14 9 13 14 26 11 29 -3 2 -10 -4 -16
-15z"/>
<path d="M1536 1605 c-9 -26 -7 -32 5 -12 6 10 9 21 6 23 -2 3 -7 -2 -11 -11z"/>
<path d="M1434 1599 c-3 -6 -2 -15 3 -20 5 -5 9 -1 9 11 0 23 -2 24 -12 9z"/>
</g>
</svg>
